<svg width="410" height="183" viewBox="0 0 410 183" fill="none" xmlns="http://www.w3.org/2000/svg">
<path d="M0 168.852L9.00634 167.043C16.9754 165.234 19.2969 163.935 19.2969 148.426V30.7706C19.2969 14.9988 16.9754 13.9627 9.00634 12.1537L0 10.0814V0H145.666L148.234 53.2689H137.17C130.995 38.5332 127.389 31.8067 121.989 24.5704C114.003 14.489 109.64 13.716 89.553 13.716C77.2043 13.716 69.7292 15.0153 65.3659 16.0349V81.9673H67.6875C88.5322 81.9673 92.138 80.1582 95.4804 74.4679C99.5966 68.5144 101.655 64.1233 104.223 54.8148H114.777V124.628H104.223C101.655 115.583 99.5966 110.666 95.4804 103.939C91.6276 96.9497 88.7956 96.1767 67.6875 96.1767H65.3659V148.409C65.3659 163.918 66.6502 164.954 76.167 166.763L88.2687 168.836V179.18H0V168.836V168.852Z" fill="white"/>
<path d="M242.116 112.229C242.116 64.1403 231.826 54.8154 212.776 54.8154C195.537 54.8154 185.493 65.6698 185.493 109.63C185.493 158.245 194.763 169.116 214.834 169.116C231.299 169.116 242.116 159.281 242.116 112.229ZM142.52 112.229C142.52 63.0877 178.034 41.3789 214.06 41.3789C251.896 41.3789 285.09 63.8771 285.09 111.193C285.09 158.508 250.085 182.305 214.06 182.305C175.449 182.305 142.52 159.544 142.52 112.229Z" fill="white"/>
<path d="M293.373 169.114L300.832 167.305C309.328 164.986 310.349 163.687 310.349 152.569V78.1016C310.349 67.2472 309.065 66.4742 301.606 61.5568L292.6 55.8665V47.5941L346.901 41.6406L350.507 44.2227L348.712 61.2937H349.996C357.982 52.495 374.447 41.6406 389.628 41.6406C401.713 41.6406 409.435 48.3671 409.435 60.7674C409.435 73.1678 402.75 80.4205 391.686 80.4205C379.601 80.4205 376.505 77.8385 371.352 69.8292C369.557 66.984 367.235 66.2111 364.403 66.2111C359.777 66.2111 354.623 70.6022 351.017 73.9736V152.586C351.017 164.74 352.055 166.039 359.513 167.322L368.783 169.131V179.212H293.373V169.131V169.114Z" fill="white"/>
</svg>
