<svg width="267" height="254" viewBox="0 0 267 254" fill="none" xmlns="http://www.w3.org/2000/svg">
<path d="M103.384 80.2733C112.077 76.1289 119.256 71.3267 124.903 65.8501C130.551 60.39 133.383 53.5156 133.383 45.2103C133.383 32.9744 127.62 26.8565 116.095 26.8565C109.344 26.8565 104.569 29.3069 101.737 34.2243C98.9051 39.1417 97.4891 44.6511 97.4891 50.7691C97.4891 55.3575 97.9831 59.9953 98.9545 64.6989C99.9424 69.4025 101.408 74.583 103.351 80.2569M71.4251 140.565C65.7611 145.153 61.2003 150.35 57.7262 156.123C54.2521 161.912 52.5068 168.951 52.5068 177.256C52.5068 184.032 53.6923 190.084 56.0962 195.445C58.4836 200.807 61.7436 205.379 65.8764 209.211C70.0091 213.043 74.7839 215.921 80.2338 217.894C85.6673 219.868 91.3147 220.838 97.1927 220.838C102.626 220.838 108.06 220.41 113.493 219.522C118.927 218.651 124.146 217.236 129.151 215.263C117.412 204.77 106.594 193.143 96.6988 180.364C86.8033 167.586 78.3897 154.314 71.4251 140.548M253.725 129.414C243.945 129.414 237.359 130.45 234 132.523C230.625 134.595 228.945 138.147 228.945 143.18C228.945 155.629 226.229 167.865 220.795 179.871C215.362 191.893 207.64 202.928 197.646 212.96C201.334 214.917 205.088 216.513 208.891 217.713C212.695 218.914 216.449 219.522 220.137 219.522C226.657 219.522 232.206 217.943 236.766 214.769C241.327 211.612 243.616 206.53 243.616 199.54V183.489H266.436V199.54C266.436 215.921 261.974 229.094 253.067 239.027C244.143 248.961 230.46 253.928 211.97 253.928C203.277 253.928 194.731 252.563 186.367 249.832C178.003 247.102 169.672 243.451 161.423 238.863C151.642 243.665 141.418 247.382 130.765 250.013C120.112 252.628 108.916 253.944 97.1763 253.944C84.7781 253.944 72.7258 252.628 60.9863 250.013C49.2467 247.382 38.8573 243.139 29.8345 237.235C20.8117 231.331 13.5836 223.535 8.15016 213.799C2.71672 204.079 0 192.123 0 177.914C0 168.737 1.30073 160.382 3.91866 152.85C6.52013 145.318 10.2247 138.427 14.9996 132.21C19.7744 125.977 25.3725 120.369 31.7939 115.336C38.1987 110.32 45.3281 105.831 53.1489 101.9C49.8889 95.1241 47.3203 88.1346 45.4927 80.9312C43.6486 73.7278 42.7266 66.6231 42.7266 59.6335C42.7266 49.7987 44.5707 41.1152 48.2588 33.5829C51.947 26.0506 56.9359 19.8175 63.209 14.9001C69.4987 9.98277 76.9737 6.26595 85.6508 3.76615C94.3278 1.2499 103.647 0 113.625 0C128.591 0 138.042 4.21019 147.576 12.6141C157.109 21.0181 161.884 32.8757 161.884 48.1706C161.884 56.4759 160.517 63.7286 157.8 69.9616C155.084 76.1947 151.445 81.7535 146.884 86.6709C142.323 91.5882 137.038 96.0122 131.061 99.9428C125.084 103.873 121.627 107.59 115.107 111.093C118.581 118.297 122.384 125.615 126.517 133.049C130.65 140.482 135.046 147.801 139.722 155.004C144.398 162.208 149.288 169.099 154.392 175.644C159.496 182.206 164.683 188.094 169.951 193.34C176.34 187.008 181.444 179.575 185.297 171.056C189.15 162.537 191.076 153.261 191.076 143.213C191.076 138.196 189.314 134.644 185.791 132.555C182.267 130.483 175.55 129.447 165.638 129.447V102.574H253.692V129.447L253.725 129.414Z" fill="white"/>
</svg>
