<svg width="615" height="202" viewBox="0 0 615 202" fill="none" xmlns="http://www.w3.org/2000/svg">
<path d="M22.9028 53.7775C16.465 36.9696 14.4068 32.3154 6.68478 30.5063L0 28.9604V18.8789H83.3786V28.9604L76.167 30.7694C70.7664 32.0687 67.6711 34.9138 67.6711 40.6042C67.6711 45.7683 69.7292 52.7579 72.0507 59.9941L98.5593 148.951H99.8436L127.389 71.9011L120.705 50.4389C116.062 37.2492 112.983 32.8581 105.014 30.7859L99.3496 28.9768V18.8954H181.181V28.9768L171.911 31.049C166.757 31.822 163.168 35.7032 163.168 41.3936C163.168 46.0478 164.716 52.7743 167.021 60.0106L195.851 148.967H197.135L222.623 59.7639C224.418 53.0374 225.965 46.5741 225.965 41.41C225.965 35.2099 222.87 32.1016 216.696 30.8023L208.2 28.9933V18.9118H265.333V28.9933L258.895 30.5392C250.152 32.6114 246.793 40.3575 240.619 59.7639L197.119 198.108H168.552L136.906 95.4519H135.359L99.5802 198.108H69.4657L22.8863 53.8104L22.9028 53.7775Z" fill="white"/>
<path d="M282.539 25.9357C282.539 12.746 293.34 3.4375 307.236 3.4375C320.359 3.4375 331.177 12.746 331.177 25.9357C331.177 39.1255 320.359 48.434 307.236 48.434C293.34 48.434 282.539 38.5992 282.539 25.9357ZM270.948 187.995L278.406 186.186C286.902 183.867 287.923 182.568 287.923 171.451V96.9828C287.923 86.1284 286.639 85.3554 279.18 80.4381L270.174 74.7477V66.4753L327.06 60.5383L330.666 62.8572C330.419 70.3566 328.608 79.1388 328.608 99.828V171.451C328.608 183.078 329.645 184.114 337.878 186.186L345.336 187.995V198.077H270.964V187.995H270.948Z" fill="white"/>
<path d="M368.502 166.004V82.2273H351.773V72.9188C372.371 65.9457 384.209 50.6837 391.668 28.6953H409.417V63.857H445.443L441.063 82.2109H409.401V162.369C409.401 175.033 413.781 180.213 426.903 180.213C433.077 180.213 441.31 178.404 445.937 177.368V187.712C440.026 194.176 426.64 201.165 405.021 201.165C382.118 201.165 368.485 191.084 368.485 166.004" fill="white"/>
<path d="M454.713 187.995L462.171 186.186C470.667 183.867 471.688 182.568 471.688 171.45V35.9511C471.688 23.7975 470.651 22.4982 463.192 18.8801L453.412 13.9627V4.91738L510.809 0L514.415 2.58203C514.415 2.58203 512.357 14.9988 512.357 32.3165V52.7426C512.357 66.7053 510.809 78.086 510.809 78.086H511.846C526.006 68.5144 543.492 60.5051 562.542 60.5051C585.445 60.5051 597.547 71.8858 597.547 94.8939V171.434C597.547 182.815 598.831 184.097 607.063 186.17L614.012 187.979V198.06H541.434V187.979L548.382 186.433C555.841 184.361 556.615 183.588 556.615 171.434V106.521C556.615 90.4864 550.951 84.796 537.828 84.796C528.048 84.796 518.021 87.9043 512.357 89.6969V171.418C512.357 183.834 513.131 184.344 520.589 186.416L527.537 187.962V198.044H454.696V187.962L454.713 187.995Z" fill="white"/>
</svg>
