<svg width="883" height="379" viewBox="0 0 883 379" fill="none" xmlns="http://www.w3.org/2000/svg">
<g clip-path="url(#clip0_65_1756)">
<path d="M165.605 168.852L174.611 167.043C182.58 165.234 184.902 163.935 184.902 148.426V30.7706C184.902 14.9988 182.58 13.9627 174.611 12.1537L165.605 10.0814V0H311.27L313.839 53.2689H302.774C296.6 38.5332 292.994 31.8067 287.594 24.5704C279.608 14.489 275.245 13.716 255.158 13.716C242.809 13.716 235.334 15.0153 230.971 16.0349V81.9673H233.292C254.137 81.9673 257.743 80.1582 261.085 74.4679C265.201 68.5144 267.259 64.1233 269.828 54.8148H280.382V124.628H269.828C267.259 115.583 265.201 110.666 261.085 103.939C257.232 96.9497 254.4 96.1767 233.292 96.1767H230.971V148.409C230.971 163.918 232.255 164.954 241.772 166.763L253.873 168.835V179.18H165.605V168.835V168.852Z" fill="#FF8F8A"/>
<path d="M291.874 231.594C285.437 214.786 283.379 210.132 275.656 208.323L268.972 206.777V196.695H352.35V206.777L345.139 208.586C339.738 209.885 336.643 212.73 336.643 218.421C336.643 223.585 338.701 230.574 341.022 237.811L367.531 326.767H368.815L396.361 249.717L389.676 228.255C385.033 215.066 381.954 210.674 373.985 208.602L368.321 206.793V196.712H450.152V206.793L440.882 208.865C435.729 209.638 432.14 213.52 432.14 219.21C432.14 223.864 433.687 230.591 435.992 237.827L464.823 326.784H466.107L491.595 237.58C493.389 230.854 494.937 224.391 494.937 219.226C494.937 213.026 491.842 209.918 485.667 208.619L477.171 206.81V196.728H534.305V206.81L527.867 208.356C519.124 210.428 515.765 218.174 509.591 237.58L466.09 375.925H437.524L405.878 273.268H404.33L368.552 375.925H338.437L291.858 231.627L291.874 231.594Z" fill="#EF1300"/>
<path d="M551.511 203.75C551.511 190.56 562.312 181.252 576.208 181.252C589.331 181.252 600.148 190.56 600.148 203.75C600.148 216.94 589.331 226.248 576.208 226.248C562.312 226.248 551.511 216.414 551.511 203.75ZM539.919 365.81L547.378 364.001C555.874 361.682 556.895 360.383 556.895 349.265V274.797C556.895 263.943 555.61 263.17 548.152 258.253L539.146 252.562V244.29L596.032 238.353L599.638 240.672C599.391 248.171 597.58 256.953 597.58 277.642V349.265C597.58 360.893 598.617 361.929 606.849 364.001L614.308 365.81V375.891H539.936V365.81H539.919Z" fill="#EF1300"/>
<path d="M637.475 343.822V260.046H620.746V250.737C641.344 243.764 653.182 228.502 660.641 206.514H678.39V241.675H714.415L710.036 260.029H678.373V340.187C678.373 352.851 682.753 358.031 695.876 358.031C702.05 358.031 710.283 356.222 714.909 355.186V365.531C708.998 371.994 695.612 378.984 673.994 378.984C651.091 378.984 637.458 368.902 637.458 343.822" fill="#EF1300"/>
<path d="M723.685 365.812L731.144 364.003C739.64 361.684 740.66 360.384 740.66 349.267V213.768C740.66 201.614 739.623 200.315 732.164 196.697L722.384 191.779V182.734L779.781 177.816L783.387 180.398C783.387 180.398 781.329 192.815 781.329 210.133V230.559C781.329 244.522 779.781 255.902 779.781 255.902H780.819C794.978 246.331 812.464 238.322 831.514 238.322C854.417 238.322 866.519 249.702 866.519 272.71V349.25C866.519 360.631 867.803 361.914 876.035 363.986L882.984 365.795V375.877H810.406V365.795L817.354 364.249C824.813 362.177 825.587 361.404 825.587 349.25V284.338C825.587 268.303 819.923 262.612 806.8 262.612C797.02 262.612 786.993 265.721 781.329 267.513V349.234C781.329 361.651 782.103 362.161 789.561 364.233L796.51 365.779V375.86H723.669V365.779L723.685 365.812Z" fill="#EF1300"/>
<path d="M103.367 174.378C112.061 170.233 119.239 165.431 124.887 159.955C130.534 154.495 133.366 147.62 133.366 139.315C133.366 127.079 127.604 120.961 116.078 120.961C109.328 120.961 104.553 123.411 101.721 128.329C98.8887 133.246 97.4727 138.756 97.4727 144.874C97.4727 149.462 97.9667 154.1 98.9381 158.803C99.926 163.507 101.391 168.687 103.334 174.361M71.4087 234.669C65.7447 239.258 61.1839 244.455 57.7098 250.227C54.2357 256.016 52.4904 263.055 52.4904 271.36C52.4904 278.136 53.6759 284.188 56.0798 289.55C58.4672 294.911 61.7273 299.483 65.86 303.315C69.9927 307.147 74.7676 310.025 80.2175 311.999C85.6509 313.972 91.2984 314.943 97.1764 314.943C102.61 314.943 108.043 314.515 113.477 313.627C118.91 312.755 124.13 311.341 129.135 309.367C117.395 298.875 106.578 287.247 96.6824 274.469C86.787 261.69 78.3734 248.418 71.4087 234.653M253.709 223.519C243.929 223.519 237.343 224.555 233.984 226.627C230.609 228.699 228.929 232.252 228.929 237.284C228.929 249.734 226.212 261.97 220.779 273.975C215.345 285.997 207.623 297.033 197.629 307.065C201.317 309.022 205.071 310.617 208.875 311.818C212.678 313.018 216.432 313.627 220.12 313.627C226.64 313.627 232.189 312.048 236.75 308.874C241.311 305.716 243.599 300.634 243.599 293.645V277.593H266.42V293.645C266.42 310.025 261.958 323.198 253.05 333.132C244.126 343.065 230.444 348.032 211.954 348.032C203.26 348.032 194.715 346.667 186.351 343.937C177.986 341.207 169.655 337.556 161.406 332.967C151.626 337.77 141.401 341.486 130.748 344.118C120.096 346.733 108.899 348.048 97.1599 348.048C84.7618 348.048 72.7094 346.733 60.9699 344.118C49.2304 341.486 38.841 337.243 29.8182 331.339C20.7954 325.435 13.5672 317.64 8.13381 307.904C2.70036 298.184 -0.0163574 286.228 -0.0163574 272.018C-0.0163574 262.841 1.28438 254.487 3.90231 246.954C6.50377 239.422 10.2084 232.531 14.9832 226.315C19.7581 220.081 25.3562 214.473 31.7775 209.441C38.1824 204.425 45.3117 199.935 53.1326 196.004C49.8725 189.229 47.304 182.239 45.4764 175.036C43.6323 167.832 42.7103 160.728 42.7103 153.738C42.7103 143.903 44.5543 135.22 48.2425 127.687C51.9306 120.155 56.9195 113.922 63.1927 109.005C69.4823 104.087 76.9574 100.37 85.6344 97.8706C94.3115 95.3544 103.631 94.1045 113.608 94.1045C128.575 94.1045 138.026 98.3147 147.559 106.719C157.092 115.123 161.867 126.98 161.867 142.275C161.867 150.58 160.501 157.833 157.784 164.066C155.067 170.299 151.428 175.858 146.868 180.775C142.307 185.693 137.022 190.117 131.045 194.047C125.068 197.978 121.61 201.695 115.09 205.198C118.564 212.401 122.368 219.72 126.501 227.153C130.633 234.587 135.029 241.905 139.705 249.109C144.381 256.312 149.272 263.203 154.376 269.749C159.48 276.311 164.666 282.198 169.935 287.445C176.324 281.113 181.428 273.679 185.28 265.16C189.133 256.641 191.06 247.366 191.06 237.317C191.06 232.301 189.298 228.749 185.774 226.66C182.251 224.588 175.533 223.552 165.621 223.552V196.679H253.676V223.552L253.709 223.519Z" fill="#EF1300"/>
<path d="M407.722 112.228C407.722 64.1393 397.431 54.8144 378.382 54.8144C361.143 54.8144 351.099 65.6688 351.099 109.629C351.099 158.244 360.369 169.115 380.44 169.115C396.905 169.115 407.722 159.28 407.722 112.228ZM308.125 112.228C308.125 63.0868 343.64 41.3779 379.666 41.3779C417.502 41.3779 450.696 63.8762 450.696 111.192C450.696 158.507 415.691 182.304 379.666 182.304C341.055 182.304 308.125 159.543 308.125 112.228Z" fill="#FF8F8A"/>
<path d="M458.977 169.115L466.436 167.306C474.932 164.987 475.953 163.688 475.953 152.57V78.1026C475.953 67.2482 474.669 66.4752 467.21 61.5578L458.204 55.8675V47.5951L512.505 41.6416L516.111 44.2236L514.316 61.2947H515.6C523.586 52.496 540.051 41.6416 555.232 41.6416C567.317 41.6416 575.039 48.3681 575.039 60.7684C575.039 73.1687 568.354 80.4215 557.29 80.4215C545.205 80.4215 542.109 77.8394 536.956 69.8302C535.161 66.985 532.839 66.212 530.007 66.212C525.381 66.212 520.227 70.6032 516.621 73.9746V152.587C516.621 164.741 517.659 166.04 525.117 167.323L534.387 169.132V179.213H458.977V169.132V169.115Z" fill="#FF8F8A"/>
</g>
<defs>
<clipPath id="clip0_65_1756">
<rect width="883" height="379" fill="white"/>
</clipPath>
</defs>
</svg>
